<svg id="Capa_1" enable-background="new 0 0 512 512" height="50" viewBox="0 0 512 512" width="50" xmlns="http://www.w3.org/2000/svg"><g><g><path d="m433.015 512h-354.03c-5.69 0-10.302-4.612-10.302-10.302v-491.396c0-5.69 4.612-10.302 10.302-10.302h354.031c5.69 0 10.302 4.612 10.302 10.302v491.396c-.001 5.69-4.613 10.302-10.303 10.302z" fill="#ecf4ff"/></g><g><path d="m78.985 512h354.031c5.689 0 10.302-4.612 10.302-10.302v-204.178c-36.641 41.866-81.95 81.689-134.48 116.464-77.594 51.367-159.168 83.911-233.995 97.143 1.268.558 2.667.873 4.142.873z" fill="#cbe2ff"/></g><g><g><path d="m154.016 142.674v-41.731c-29.41 0-53.12 24.399-51.994 54.06 1.024 26.968 22.999 48.943 49.967 49.967 29.66 1.126 54.06-22.584 54.06-51.994h-41.731c-5.69 0-10.302-4.613-10.302-10.302z" fill="#e49542"/></g><g><path d="m154.016 100.943v41.731c0 5.69 4.612 10.302 10.302 10.302h41.731c0-28.737-23.296-52.033-52.033-52.033z" fill="#c8ea73"/></g></g><g><path d="m172.748 43.603v12.697c0 5.69 4.612 10.302 10.302 10.302h145.9c5.69 0 10.302-4.612 10.302-10.302v-12.697c0-5.69-4.612-10.302-10.302-10.302h-145.9c-5.69 0-10.302 4.612-10.302 10.302z" fill="#4073c8"/></g><g><g><path d="m106.146 451.579v20.939c0 3.414 2.767 6.181 6.181 6.181h37.589c3.414 0 6.181-2.767 6.181-6.181v-20.939c0-3.414-2.767-6.181-6.181-6.181h-37.589c-3.413 0-6.181 2.768-6.181 6.181z" fill="#4073c8"/></g><g><path d="m189.398 401.628v70.89c0 3.414 2.767 6.181 6.181 6.181h37.589c3.414 0 6.181-2.767 6.181-6.181v-70.89c0-3.414-2.767-6.181-6.181-6.181h-37.589c-3.413 0-6.181 2.768-6.181 6.181z" fill="#e49542"/></g><g><path d="m195.579 478.699h37.589c3.414 0 6.181-2.767 6.181-6.181v-17.984c-16.091 8.19-32.213 15.588-48.281 22.201 1.129 1.206 2.73 1.964 4.511 1.964z" fill="#e28424"/></g><g><path d="m272.65 339.189v133.329c0 3.414 2.767 6.181 6.181 6.181h37.589c3.414 0 6.181-2.767 6.181-6.181v-133.329c0-3.414-2.767-6.181-6.181-6.181h-37.589c-3.413 0-6.181 2.767-6.181 6.181z" fill="#dd5790"/></g><g><path d="m322.602 404.614c-4.538 3.157-9.113 6.29-13.765 9.369-11.98 7.931-24.056 15.405-36.186 22.437v36.098c0 3.414 2.767 6.181 6.181 6.181h37.589c3.414 0 6.181-2.767 6.181-6.181z" fill="#da387d"/></g><g><path d="m355.902 297.563v174.955c0 3.414 2.767 6.181 6.181 6.181h37.589c3.414 0 6.181-2.767 6.181-6.181v-174.955c0-3.414-2.767-6.181-6.181-6.181h-37.589c-3.413 0-6.181 2.767-6.181 6.181z" fill="#c8ea73"/></g><g><path d="m405.854 336.662c-15.552 14.911-32.222 29.413-49.951 43.349v92.506c0 3.414 2.767 6.181 6.181 6.181h37.589c3.414 0 6.181-2.767 6.181-6.181z" fill="#b7e445"/></g></g><g><path d="m410.016 108.67h-154.016c-4.268 0-7.726-3.459-7.726-7.726s3.459-7.726 7.726-7.726h154.016c4.268 0 7.726 3.459 7.726 7.726 0 4.266-3.458 7.726-7.726 7.726z" fill="#9dc6fb"/></g><g><path d="m410.016 143.358h-154.016c-4.268 0-7.726-3.459-7.726-7.726s3.459-7.726 7.726-7.726h154.016c4.268 0 7.726 3.459 7.726 7.726s-3.458 7.726-7.726 7.726z" fill="#9dc6fb"/></g><g><path d="m410.016 178.046h-154.016c-4.268 0-7.726-3.459-7.726-7.726s3.459-7.726 7.726-7.726h154.016c4.268 0 7.726 3.459 7.726 7.726s-3.458 7.726-7.726 7.726z" fill="#9dc6fb"/></g><g><path d="m347.577 212.734h-91.577c-4.268 0-7.726-3.459-7.726-7.726s3.459-7.726 7.726-7.726h91.577c4.268 0 7.726 3.459 7.726 7.726.001 4.267-3.458 7.726-7.726 7.726z" fill="#9dc6fb"/></g><g><g><path d="m256 263.726h-140.488c-4.268 0-7.726-3.459-7.726-7.726s3.459-7.726 7.726-7.726h140.488c4.268 0 7.726 3.459 7.726 7.726s-3.458 7.726-7.726 7.726z" fill="#9dc6fb"/></g><g><path d="m256 298.414h-140.488c-4.268 0-7.726-3.459-7.726-7.726s3.459-7.726 7.726-7.726h140.488c4.268 0 7.726 3.459 7.726 7.726s-3.458 7.726-7.726 7.726z" fill="#9dc6fb"/></g><g><path d="m193.561 333.103h-78.049c-4.268 0-7.726-3.459-7.726-7.726s3.459-7.726 7.726-7.726h78.049c4.268 0 7.726 3.459 7.726 7.726.001 4.267-3.458 7.726-7.726 7.726z" fill="#9dc6fb"/></g></g></g></svg>